<?xml version="1.0" encoding="UTF-8" standalone="no"?>
<!DOCTYPE svg PUBLIC "-//W3C//DTD SVG 1.1//EN" "http://www.w3.org/Graphics/SVG/1.1/DTD/svg11.dtd">
<svg width="100%" height="100%" viewBox="0 0 281 189" version="1.1" xmlns="http://www.w3.org/2000/svg" xmlns:xlink="http://www.w3.org/1999/xlink" xml:space="preserve" xmlns:serif="http://www.serif.com/" style="fill-rule:evenodd;clip-rule:evenodd;stroke-linejoin:round;stroke-miterlimit:2;">
    <g transform="matrix(1,0,0,1,-209.667,-136.678)">
        <g transform="matrix(1.01497,0,0,1.0578,-4.91168,-15.8951)">
            <rect x="211.414" y="144.237" width="276.561" height="178.2" style="fill:rgb(0,116,190);fill-opacity:0;"/>
        </g>
        <g transform="matrix(4.74024,0,0,4.74024,-1024.33,-255.544)">
            <g transform="matrix(12,0,0,12,265.026,96.6728)">
                <path d="M0.317,0.01C0.265,0.01 0.217,0.004 0.174,-0.007C0.131,-0.019 0.089,-0.039 0.047,-0.068L0.047,-0.24L0.158,-0.24L0.173,-0.139C0.188,-0.127 0.208,-0.117 0.233,-0.109C0.259,-0.101 0.287,-0.098 0.317,-0.098C0.343,-0.098 0.365,-0.101 0.383,-0.108C0.4,-0.116 0.414,-0.126 0.423,-0.139C0.432,-0.152 0.437,-0.168 0.437,-0.186C0.437,-0.202 0.433,-0.218 0.425,-0.231C0.416,-0.244 0.403,-0.256 0.384,-0.267C0.365,-0.278 0.339,-0.288 0.306,-0.298C0.25,-0.315 0.203,-0.333 0.166,-0.353C0.129,-0.372 0.102,-0.396 0.083,-0.424C0.065,-0.451 0.056,-0.484 0.056,-0.523C0.056,-0.561 0.066,-0.595 0.088,-0.625C0.109,-0.654 0.139,-0.677 0.176,-0.694C0.214,-0.711 0.258,-0.72 0.307,-0.721C0.362,-0.721 0.41,-0.715 0.452,-0.701C0.495,-0.688 0.531,-0.668 0.562,-0.644L0.562,-0.484L0.455,-0.484L0.436,-0.582C0.424,-0.589 0.407,-0.596 0.386,-0.602C0.365,-0.608 0.341,-0.611 0.314,-0.611C0.292,-0.611 0.272,-0.607 0.254,-0.601C0.237,-0.594 0.223,-0.584 0.213,-0.571C0.203,-0.558 0.198,-0.542 0.198,-0.523C0.198,-0.507 0.202,-0.494 0.211,-0.482C0.22,-0.47 0.234,-0.459 0.255,-0.448C0.276,-0.437 0.304,-0.426 0.341,-0.414C0.419,-0.392 0.479,-0.363 0.519,-0.328C0.56,-0.292 0.58,-0.245 0.58,-0.187C0.58,-0.146 0.569,-0.111 0.547,-0.082C0.526,-0.052 0.495,-0.03 0.456,-0.014C0.416,0.002 0.37,0.01 0.317,0.01Z" style="fill:rgb(0,116,190);fill-rule:nonzero;"/>
            </g>
            <g transform="matrix(12,0,0,12,272.333,96.6728)">
                <path d="M0.353,0.01C0.305,0.01 0.262,0.001 0.222,-0.017C0.183,-0.035 0.149,-0.06 0.12,-0.092C0.092,-0.124 0.07,-0.163 0.055,-0.206C0.039,-0.25 0.032,-0.298 0.032,-0.35L0.032,-0.361C0.032,-0.413 0.039,-0.46 0.055,-0.504C0.07,-0.548 0.092,-0.586 0.12,-0.619C0.148,-0.651 0.182,-0.676 0.222,-0.694C0.261,-0.712 0.305,-0.721 0.353,-0.721C0.401,-0.721 0.445,-0.712 0.484,-0.694C0.524,-0.676 0.558,-0.651 0.587,-0.619C0.616,-0.586 0.638,-0.548 0.653,-0.504C0.669,-0.46 0.676,-0.413 0.676,-0.361L0.676,-0.35C0.676,-0.298 0.669,-0.25 0.653,-0.206C0.638,-0.163 0.616,-0.124 0.587,-0.092C0.558,-0.06 0.524,-0.035 0.485,-0.017C0.445,0.001 0.401,0.01 0.353,0.01ZM0.353,-0.101C0.393,-0.101 0.427,-0.111 0.454,-0.132C0.48,-0.153 0.5,-0.182 0.514,-0.219C0.527,-0.257 0.534,-0.3 0.534,-0.35L0.534,-0.362C0.534,-0.411 0.527,-0.454 0.514,-0.491C0.5,-0.529 0.48,-0.558 0.453,-0.579C0.426,-0.599 0.393,-0.61 0.353,-0.61C0.313,-0.61 0.28,-0.6 0.253,-0.579C0.227,-0.558 0.207,-0.529 0.194,-0.492C0.181,-0.455 0.174,-0.412 0.174,-0.362L0.174,-0.35C0.174,-0.3 0.181,-0.257 0.194,-0.219C0.207,-0.182 0.227,-0.153 0.254,-0.132C0.28,-0.111 0.313,-0.101 0.353,-0.101Z" style="fill:rgb(0,116,190);fill-rule:nonzero;"/>
            </g>
            <g transform="matrix(12,0,0,12,280.805,96.6728)">
                <path d="M0.027,-0L0.027,-0.085L0.103,-0.1L0.103,-0.61L0.027,-0.625L0.027,-0.711L0.332,-0.711L0.332,-0.625L0.246,-0.61L0.246,-0.109L0.446,-0.109L0.453,-0.213L0.562,-0.213L0.562,-0L0.027,-0Z" style="fill:rgb(0,116,190);fill-rule:nonzero;"/>
            </g>
            <g transform="matrix(12,0,0,12,287.836,96.6728)">
                <path d="M0.02,-0L0.02,-0.085L0.071,-0.093L0.297,-0.711L0.443,-0.711L0.667,-0.093L0.718,-0.085L0.718,-0L0.476,-0L0.476,-0.085L0.525,-0.094L0.494,-0.192L0.244,-0.192L0.213,-0.094L0.262,-0.085L0.262,-0L0.02,-0ZM0.278,-0.297L0.46,-0.297L0.377,-0.541L0.371,-0.562L0.368,-0.562L0.36,-0.539L0.278,-0.297Z" style="fill:rgb(0,116,190);fill-rule:nonzero;"/>
            </g>
            <g transform="matrix(12,0,0,12,296.696,96.6728)">
                <path d="M0.027,-0L0.027,-0.085L0.103,-0.1L0.103,-0.61L0.027,-0.625L0.027,-0.711L0.248,-0.711L0.557,-0.218L0.56,-0.218L0.56,-0.61L0.469,-0.625L0.469,-0.711L0.764,-0.711L0.764,-0.625L0.688,-0.61L0.688,-0L0.55,-0L0.233,-0.488L0.23,-0.488L0.23,-0.1L0.322,-0.085L0.322,-0L0.027,-0Z" style="fill:rgb(0,116,190);fill-rule:nonzero;"/>
            </g>
            <g transform="matrix(12,0,0,12,306.094,96.6728)">
                <path d="M0.353,0.01C0.305,0.01 0.262,0.001 0.222,-0.017C0.183,-0.035 0.149,-0.06 0.12,-0.092C0.092,-0.124 0.07,-0.163 0.055,-0.206C0.039,-0.25 0.032,-0.298 0.032,-0.35L0.032,-0.361C0.032,-0.413 0.039,-0.46 0.055,-0.504C0.07,-0.548 0.092,-0.586 0.12,-0.619C0.148,-0.651 0.182,-0.676 0.222,-0.694C0.261,-0.712 0.305,-0.721 0.353,-0.721C0.401,-0.721 0.445,-0.712 0.484,-0.694C0.524,-0.676 0.558,-0.651 0.587,-0.619C0.616,-0.586 0.638,-0.548 0.653,-0.504C0.669,-0.46 0.676,-0.413 0.676,-0.361L0.676,-0.35C0.676,-0.298 0.669,-0.25 0.653,-0.206C0.638,-0.163 0.616,-0.124 0.587,-0.092C0.558,-0.06 0.524,-0.035 0.485,-0.017C0.445,0.001 0.401,0.01 0.353,0.01ZM0.353,-0.101C0.393,-0.101 0.427,-0.111 0.454,-0.132C0.48,-0.153 0.5,-0.182 0.514,-0.219C0.527,-0.257 0.534,-0.3 0.534,-0.35L0.534,-0.362C0.534,-0.411 0.527,-0.454 0.514,-0.491C0.5,-0.529 0.48,-0.558 0.453,-0.579C0.426,-0.599 0.393,-0.61 0.353,-0.61C0.313,-0.61 0.28,-0.6 0.253,-0.579C0.227,-0.558 0.207,-0.529 0.194,-0.492C0.181,-0.455 0.174,-0.412 0.174,-0.362L0.174,-0.35C0.174,-0.3 0.181,-0.257 0.194,-0.219C0.207,-0.182 0.227,-0.153 0.254,-0.132C0.28,-0.111 0.313,-0.101 0.353,-0.101Z" style="fill:rgb(0,116,190);fill-rule:nonzero;"/>
            </g>
        </g>
        <g transform="matrix(1.69795,0,0,1.69795,-216.144,58.317)">
            <g transform="matrix(12,0,0,12,265.026,96.6728)">
                <path d="M0.366,0.01C0.297,0.01 0.237,-0.004 0.186,-0.033C0.134,-0.062 0.095,-0.103 0.067,-0.156C0.039,-0.208 0.025,-0.271 0.025,-0.343L0.025,-0.367C0.025,-0.436 0.039,-0.497 0.066,-0.551C0.093,-0.604 0.131,-0.646 0.181,-0.676C0.23,-0.706 0.29,-0.721 0.358,-0.721C0.407,-0.721 0.452,-0.714 0.494,-0.701C0.536,-0.687 0.574,-0.666 0.607,-0.638L0.607,-0.466L0.501,-0.466L0.486,-0.574C0.476,-0.582 0.464,-0.589 0.451,-0.594C0.438,-0.6 0.425,-0.604 0.41,-0.607C0.395,-0.61 0.379,-0.611 0.362,-0.611C0.321,-0.611 0.287,-0.601 0.258,-0.582C0.229,-0.562 0.207,-0.534 0.191,-0.497C0.176,-0.461 0.168,-0.418 0.168,-0.368L0.168,-0.343C0.168,-0.293 0.176,-0.25 0.192,-0.214C0.209,-0.177 0.232,-0.149 0.262,-0.129C0.292,-0.109 0.327,-0.099 0.368,-0.099C0.389,-0.099 0.409,-0.101 0.43,-0.106C0.451,-0.111 0.469,-0.117 0.486,-0.125L0.501,-0.225L0.607,-0.225L0.607,-0.055C0.579,-0.036 0.545,-0.021 0.503,-0.009C0.462,0.004 0.416,0.01 0.366,0.01Z" style="fill:rgb(0,116,190);fill-rule:nonzero;"/>
            </g>
            <g transform="matrix(12,0,0,12,272.766,96.6728)">
                <path d="M0.353,0.01C0.305,0.01 0.262,0.001 0.222,-0.017C0.183,-0.035 0.149,-0.06 0.12,-0.092C0.092,-0.124 0.07,-0.163 0.055,-0.206C0.039,-0.25 0.032,-0.298 0.032,-0.35L0.032,-0.361C0.032,-0.413 0.039,-0.46 0.055,-0.504C0.07,-0.548 0.092,-0.586 0.12,-0.619C0.148,-0.651 0.182,-0.676 0.222,-0.694C0.261,-0.712 0.305,-0.721 0.353,-0.721C0.401,-0.721 0.445,-0.712 0.484,-0.694C0.524,-0.676 0.558,-0.651 0.587,-0.619C0.616,-0.586 0.638,-0.548 0.653,-0.504C0.669,-0.46 0.676,-0.413 0.676,-0.361L0.676,-0.35C0.676,-0.298 0.669,-0.25 0.653,-0.206C0.638,-0.163 0.616,-0.124 0.587,-0.092C0.558,-0.06 0.524,-0.035 0.485,-0.017C0.445,0.001 0.401,0.01 0.353,0.01ZM0.353,-0.101C0.393,-0.101 0.427,-0.111 0.454,-0.132C0.48,-0.153 0.5,-0.182 0.514,-0.219C0.527,-0.257 0.534,-0.3 0.534,-0.35L0.534,-0.362C0.534,-0.411 0.527,-0.454 0.514,-0.491C0.5,-0.529 0.48,-0.558 0.453,-0.579C0.426,-0.599 0.393,-0.61 0.353,-0.61C0.313,-0.61 0.28,-0.6 0.253,-0.579C0.227,-0.558 0.207,-0.529 0.194,-0.492C0.181,-0.455 0.174,-0.412 0.174,-0.362L0.174,-0.35C0.174,-0.3 0.181,-0.257 0.194,-0.219C0.207,-0.182 0.227,-0.153 0.254,-0.132C0.28,-0.111 0.313,-0.101 0.353,-0.101Z" style="fill:rgb(0,116,190);fill-rule:nonzero;"/>
            </g>
            <g transform="matrix(12,0,0,12,281.239,96.6728)">
                <path d="M0.027,-0L0.027,-0.085L0.103,-0.1L0.103,-0.61L0.027,-0.625L0.027,-0.711L0.314,-0.711L0.508,-0.215L0.511,-0.215L0.698,-0.711L0.985,-0.711L0.985,-0.625L0.909,-0.61L0.909,-0.1L0.985,-0.085L0.985,-0L0.691,-0L0.691,-0.085L0.771,-0.1L0.771,-0.236L0.773,-0.557L0.77,-0.558L0.558,-0.01L0.45,-0.01L0.232,-0.553L0.229,-0.553L0.238,-0.251L0.238,-0.1L0.322,-0.085L0.322,-0L0.027,-0Z" style="fill:rgb(0,116,190);fill-rule:nonzero;"/>
            </g>
            <g transform="matrix(12,0,0,12,293.344,96.6728)">
                <path d="M0.027,-0L0.027,-0.085L0.103,-0.1L0.103,-0.61L0.027,-0.625L0.027,-0.711L0.314,-0.711L0.508,-0.215L0.511,-0.215L0.698,-0.711L0.985,-0.711L0.985,-0.625L0.909,-0.61L0.909,-0.1L0.985,-0.085L0.985,-0L0.691,-0L0.691,-0.085L0.771,-0.1L0.771,-0.236L0.773,-0.557L0.77,-0.558L0.558,-0.01L0.45,-0.01L0.232,-0.553L0.229,-0.553L0.238,-0.251L0.238,-0.1L0.322,-0.085L0.322,-0L0.027,-0Z" style="fill:rgb(0,116,190);fill-rule:nonzero;"/>
            </g>
            <g transform="matrix(12,0,0,12,305.45,96.6728)">
                <path d="M0.379,0.01C0.323,0.01 0.273,0 0.23,-0.019C0.187,-0.039 0.154,-0.067 0.13,-0.104C0.107,-0.141 0.095,-0.186 0.095,-0.239L0.095,-0.61L0.019,-0.625L0.019,-0.711L0.313,-0.711L0.313,-0.625L0.237,-0.61L0.237,-0.239C0.237,-0.208 0.243,-0.182 0.254,-0.161C0.266,-0.14 0.282,-0.125 0.303,-0.115C0.324,-0.104 0.35,-0.099 0.379,-0.099C0.409,-0.099 0.434,-0.104 0.456,-0.115C0.477,-0.125 0.493,-0.14 0.505,-0.161C0.516,-0.182 0.522,-0.208 0.522,-0.239L0.522,-0.61L0.446,-0.625L0.446,-0.711L0.741,-0.711L0.741,-0.625L0.665,-0.61L0.665,-0.239C0.665,-0.186 0.653,-0.141 0.629,-0.104C0.605,-0.066 0.571,-0.038 0.529,-0.019C0.486,0.001 0.436,0.01 0.379,0.01Z" style="fill:rgb(0,116,190);fill-rule:nonzero;"/>
            </g>
            <g transform="matrix(12,0,0,12,314.561,96.6728)">
                <path d="M0.027,-0L0.027,-0.085L0.103,-0.1L0.103,-0.61L0.027,-0.625L0.027,-0.711L0.248,-0.711L0.557,-0.218L0.56,-0.218L0.56,-0.61L0.469,-0.625L0.469,-0.711L0.764,-0.711L0.764,-0.625L0.688,-0.61L0.688,-0L0.55,-0L0.233,-0.488L0.23,-0.488L0.23,-0.1L0.322,-0.085L0.322,-0L0.027,-0Z" style="fill:rgb(0,116,190);fill-rule:nonzero;"/>
            </g>
            <g transform="matrix(12,0,0,12,323.959,96.6728)">
                <path d="M0.027,-0L0.027,-0.085L0.103,-0.1L0.103,-0.61L0.027,-0.625L0.027,-0.711L0.321,-0.711L0.321,-0.625L0.246,-0.61L0.246,-0.1L0.321,-0.085L0.321,-0L0.027,-0Z" style="fill:rgb(0,116,190);fill-rule:nonzero;"/>
            </g>
            <g transform="matrix(12,0,0,12,328.143,96.6728)">
                <path d="M0.191,-0L0.191,-0.085L0.267,-0.1L0.267,-0.601L0.138,-0.601L0.13,-0.516L0.022,-0.516L0.022,-0.711L0.656,-0.711L0.656,-0.516L0.548,-0.516L0.54,-0.601L0.41,-0.601L0.41,-0.1L0.486,-0.085L0.486,-0L0.191,-0Z" style="fill:rgb(0,116,190);fill-rule:nonzero;"/>
            </g>
            <g transform="matrix(12,0,0,12,336.376,96.6728)">
                <path d="M0.221,-0L0.221,-0.085L0.297,-0.1L0.297,-0.244L0.086,-0.615L0.018,-0.625L0.018,-0.711L0.301,-0.711L0.301,-0.625L0.243,-0.617L0.361,-0.39L0.372,-0.367L0.375,-0.367L0.386,-0.389L0.517,-0.617L0.439,-0.625L0.439,-0.711L0.717,-0.711L0.717,-0.625L0.647,-0.615L0.439,-0.255L0.439,-0.1L0.515,-0.085L0.515,-0L0.221,-0Z" style="fill:rgb(0,116,190);fill-rule:nonzero;"/>
            </g>
            <g transform="matrix(12,0,0,12,348.153,96.6728)">
                <path d="M0.366,0.01C0.297,0.01 0.237,-0.004 0.186,-0.033C0.134,-0.062 0.095,-0.103 0.067,-0.156C0.039,-0.208 0.025,-0.271 0.025,-0.343L0.025,-0.367C0.025,-0.436 0.039,-0.497 0.066,-0.551C0.093,-0.604 0.131,-0.646 0.181,-0.676C0.23,-0.706 0.29,-0.721 0.358,-0.721C0.407,-0.721 0.452,-0.714 0.494,-0.701C0.536,-0.687 0.574,-0.666 0.607,-0.638L0.607,-0.466L0.501,-0.466L0.486,-0.574C0.476,-0.582 0.464,-0.589 0.451,-0.594C0.438,-0.6 0.425,-0.604 0.41,-0.607C0.395,-0.61 0.379,-0.611 0.362,-0.611C0.321,-0.611 0.287,-0.601 0.258,-0.582C0.229,-0.562 0.207,-0.534 0.191,-0.497C0.176,-0.461 0.168,-0.418 0.168,-0.368L0.168,-0.343C0.168,-0.293 0.176,-0.25 0.192,-0.214C0.209,-0.177 0.232,-0.149 0.262,-0.129C0.292,-0.109 0.327,-0.099 0.368,-0.099C0.389,-0.099 0.409,-0.101 0.43,-0.106C0.451,-0.111 0.469,-0.117 0.486,-0.125L0.501,-0.225L0.607,-0.225L0.607,-0.055C0.579,-0.036 0.545,-0.021 0.503,-0.009C0.462,0.004 0.416,0.01 0.366,0.01Z" style="fill:rgb(0,116,190);fill-rule:nonzero;"/>
            </g>
            <g transform="matrix(12,0,0,12,355.893,96.6728)">
                <path d="M0.353,0.01C0.305,0.01 0.262,0.001 0.222,-0.017C0.183,-0.035 0.149,-0.06 0.12,-0.092C0.092,-0.124 0.07,-0.163 0.055,-0.206C0.039,-0.25 0.032,-0.298 0.032,-0.35L0.032,-0.361C0.032,-0.413 0.039,-0.46 0.055,-0.504C0.07,-0.548 0.092,-0.586 0.12,-0.619C0.148,-0.651 0.182,-0.676 0.222,-0.694C0.261,-0.712 0.305,-0.721 0.353,-0.721C0.401,-0.721 0.445,-0.712 0.484,-0.694C0.524,-0.676 0.558,-0.651 0.587,-0.619C0.616,-0.586 0.638,-0.548 0.653,-0.504C0.669,-0.46 0.676,-0.413 0.676,-0.361L0.676,-0.35C0.676,-0.298 0.669,-0.25 0.653,-0.206C0.638,-0.163 0.616,-0.124 0.587,-0.092C0.558,-0.06 0.524,-0.035 0.485,-0.017C0.445,0.001 0.401,0.01 0.353,0.01ZM0.353,-0.101C0.393,-0.101 0.427,-0.111 0.454,-0.132C0.48,-0.153 0.5,-0.182 0.514,-0.219C0.527,-0.257 0.534,-0.3 0.534,-0.35L0.534,-0.362C0.534,-0.411 0.527,-0.454 0.514,-0.491C0.5,-0.529 0.48,-0.558 0.453,-0.579C0.426,-0.599 0.393,-0.61 0.353,-0.61C0.313,-0.61 0.28,-0.6 0.253,-0.579C0.227,-0.558 0.207,-0.529 0.194,-0.492C0.181,-0.455 0.174,-0.412 0.174,-0.362L0.174,-0.35C0.174,-0.3 0.181,-0.257 0.194,-0.219C0.207,-0.182 0.227,-0.153 0.254,-0.132C0.28,-0.111 0.313,-0.101 0.353,-0.101Z" style="fill:rgb(0,116,190);fill-rule:nonzero;"/>
            </g>
            <g transform="matrix(12,0,0,12,364.366,96.6728)">
                <path d="M0.027,-0L0.027,-0.085L0.103,-0.1L0.103,-0.61L0.027,-0.625L0.027,-0.711L0.332,-0.711L0.332,-0.625L0.246,-0.61L0.246,-0.109L0.446,-0.109L0.453,-0.213L0.562,-0.213L0.562,-0L0.027,-0Z" style="fill:rgb(0,116,190);fill-rule:nonzero;"/>
            </g>
            <g transform="matrix(12,0,0,12,371.397,96.6728)">
                <path d="M0.027,-0L0.027,-0.085L0.103,-0.1L0.103,-0.61L0.027,-0.625L0.027,-0.711L0.332,-0.711L0.332,-0.625L0.246,-0.61L0.246,-0.109L0.446,-0.109L0.453,-0.213L0.562,-0.213L0.562,-0L0.027,-0Z" style="fill:rgb(0,116,190);fill-rule:nonzero;"/>
            </g>
            <g transform="matrix(12,0,0,12,378.428,96.6728)">
                <path d="M0.027,-0L0.027,-0.085L0.103,-0.1L0.103,-0.61L0.027,-0.625L0.027,-0.711L0.579,-0.711L0.579,-0.519L0.47,-0.519L0.463,-0.601L0.246,-0.601L0.246,-0.422L0.486,-0.422L0.486,-0.313L0.246,-0.313L0.246,-0.109L0.475,-0.109L0.481,-0.194L0.59,-0.194L0.59,-0L0.027,-0Z" style="fill:rgb(0,116,190);fill-rule:nonzero;"/>
            </g>
            <g transform="matrix(12,0,0,12,386.092,96.6728)">
                <path d="M0.358,0.01C0.287,0.01 0.227,-0.004 0.177,-0.034C0.127,-0.063 0.089,-0.104 0.063,-0.156C0.036,-0.208 0.023,-0.268 0.023,-0.337L0.023,-0.361C0.023,-0.432 0.036,-0.495 0.063,-0.549C0.089,-0.603 0.126,-0.645 0.175,-0.676C0.223,-0.706 0.28,-0.721 0.346,-0.721C0.397,-0.721 0.445,-0.714 0.49,-0.7C0.535,-0.686 0.574,-0.665 0.607,-0.637L0.607,-0.479L0.502,-0.479L0.482,-0.575C0.469,-0.586 0.452,-0.595 0.431,-0.601C0.409,-0.608 0.385,-0.611 0.357,-0.611C0.317,-0.611 0.283,-0.601 0.254,-0.58C0.225,-0.559 0.203,-0.53 0.188,-0.493C0.173,-0.455 0.165,-0.412 0.165,-0.362L0.165,-0.337C0.165,-0.289 0.173,-0.247 0.188,-0.211C0.203,-0.176 0.225,-0.148 0.254,-0.128C0.284,-0.109 0.32,-0.099 0.362,-0.099C0.387,-0.099 0.41,-0.101 0.431,-0.106C0.452,-0.111 0.47,-0.117 0.483,-0.124L0.483,-0.244L0.382,-0.252L0.382,-0.352L0.626,-0.352L0.626,-0.064C0.595,-0.042 0.557,-0.024 0.512,-0.01C0.468,0.003 0.417,0.01 0.358,0.01Z" style="fill:rgb(0,116,190);fill-rule:nonzero;"/>
            </g>
            <g transform="matrix(12,0,0,12,394.137,96.6728)">
                <path d="M0.027,-0L0.027,-0.085L0.103,-0.1L0.103,-0.61L0.027,-0.625L0.027,-0.711L0.579,-0.711L0.579,-0.519L0.47,-0.519L0.463,-0.601L0.246,-0.601L0.246,-0.422L0.486,-0.422L0.486,-0.313L0.246,-0.313L0.246,-0.109L0.475,-0.109L0.481,-0.194L0.59,-0.194L0.59,-0L0.027,-0Z" style="fill:rgb(0,116,190);fill-rule:nonzero;"/>
            </g>
        </g>
        <g transform="matrix(1.86496,0,0,1.91587,-152.869,0.704035)">
            <rect x="231.772" y="121.077" width="99.587" height="23.488" style="fill:rgb(0,116,190);"/>
        </g>
        <g transform="matrix(2.31682,0,0,0.957933,-302.599,161.688)">
            <rect x="231.772" y="121.077" width="99.587" height="23.488" style="fill:rgb(0,116,190);fill-opacity:0.25;"/>
        </g>
        <g transform="matrix(0.451865,0,0,1.91587,129.646,0.704035)">
            <rect x="231.772" y="121.077" width="99.587" height="23.488" style="fill:rgb(8,42,66);"/>
        </g>
        <g transform="matrix(1,0,0,1,22.7249,160.591)">
            <g transform="matrix(32,0,0,32,265.026,106.341)">
                <path d="M0.36,0.015C0.303,0.015 0.252,0.003 0.209,-0.02C0.165,-0.043 0.131,-0.076 0.107,-0.119C0.082,-0.161 0.07,-0.211 0.07,-0.268L0.07,-0.719L0.192,-0.72L0.192,-0.271C0.192,-0.244 0.197,-0.219 0.206,-0.198C0.215,-0.177 0.227,-0.159 0.243,-0.144C0.259,-0.129 0.277,-0.118 0.297,-0.11C0.317,-0.102 0.338,-0.098 0.36,-0.099C0.382,-0.098 0.404,-0.102 0.424,-0.11C0.444,-0.118 0.462,-0.129 0.478,-0.144C0.493,-0.159 0.505,-0.177 0.515,-0.199C0.524,-0.22 0.528,-0.244 0.528,-0.271L0.528,-0.72L0.65,-0.72L0.65,-0.268C0.65,-0.211 0.638,-0.161 0.613,-0.119C0.589,-0.076 0.555,-0.043 0.511,-0.02C0.468,0.003 0.417,0.015 0.36,0.015Z" style="fill:white;fill-rule:nonzero;"/>
            </g>
            <g transform="matrix(32,0,0,32,288.066,106.341)">
                <path d="M0.387,-0C0.351,0.007 0.316,0.01 0.282,0.009C0.248,0.008 0.217,0.002 0.19,-0.01C0.163,-0.022 0.142,-0.041 0.129,-0.067C0.116,-0.09 0.11,-0.114 0.109,-0.138C0.108,-0.162 0.108,-0.19 0.108,-0.221L0.108,-0.69L0.228,-0.69L0.228,-0.228C0.228,-0.206 0.228,-0.187 0.229,-0.171C0.229,-0.154 0.233,-0.141 0.239,-0.131C0.251,-0.111 0.27,-0.099 0.297,-0.097C0.323,-0.095 0.353,-0.096 0.387,-0.101L0.387,-0ZM0.01,-0.446L0.01,-0.54L0.387,-0.54L0.387,-0.446L0.01,-0.446Z" style="fill:white;fill-rule:nonzero;"/>
            </g>
            <g transform="matrix(32,0,0,32,301.922,106.341)">
                <path d="M0.08,-0.622L0.08,-0.733L0.201,-0.733L0.201,-0.622L0.08,-0.622ZM0.08,-0L0.08,-0.54L0.201,-0.54L0.201,-0L0.08,-0Z" style="fill:white;fill-rule:nonzero;"/>
            </g>
            <g transform="matrix(32,0,0,32,310.898,106.341)">
                <rect x="0.08" y="-0.735" width="0.121" height="0.735" style="fill:white;fill-rule:nonzero;"/>
            </g>
            <g transform="matrix(32,0,0,32,319.874,106.341)">
                <path d="M0.08,-0.622L0.08,-0.733L0.201,-0.733L0.201,-0.622L0.08,-0.622ZM0.08,-0L0.08,-0.54L0.201,-0.54L0.201,-0L0.08,-0Z" style="fill:white;fill-rule:nonzero;"/>
            </g>
            <g transform="matrix(32,0,0,32,328.85,106.341)">
                <path d="M0.387,-0C0.351,0.007 0.316,0.01 0.282,0.009C0.248,0.008 0.217,0.002 0.19,-0.01C0.163,-0.022 0.142,-0.041 0.129,-0.067C0.116,-0.09 0.11,-0.114 0.109,-0.138C0.108,-0.162 0.108,-0.19 0.108,-0.221L0.108,-0.69L0.228,-0.69L0.228,-0.228C0.228,-0.206 0.228,-0.187 0.229,-0.171C0.229,-0.154 0.233,-0.141 0.239,-0.131C0.251,-0.111 0.27,-0.099 0.297,-0.097C0.323,-0.095 0.353,-0.096 0.387,-0.101L0.387,-0ZM0.01,-0.446L0.01,-0.54L0.387,-0.54L0.387,-0.446L0.01,-0.446Z" style="fill:white;fill-rule:nonzero;"/>
            </g>
            <g transform="matrix(32,0,0,32,342.706,106.341)">
                <path d="M0.08,-0.622L0.08,-0.733L0.201,-0.733L0.201,-0.622L0.08,-0.622ZM0.08,-0L0.08,-0.54L0.201,-0.54L0.201,-0L0.08,-0Z" style="fill:white;fill-rule:nonzero;"/>
            </g>
            <g transform="matrix(32,0,0,32,351.682,106.341)">
                <path d="M0.316,0.015C0.261,0.015 0.213,0.003 0.172,-0.021C0.13,-0.044 0.098,-0.077 0.075,-0.119C0.052,-0.161 0.04,-0.209 0.04,-0.264C0.04,-0.323 0.051,-0.374 0.074,-0.418C0.097,-0.461 0.128,-0.495 0.169,-0.519C0.209,-0.543 0.256,-0.555 0.309,-0.555C0.365,-0.555 0.412,-0.542 0.451,-0.516C0.49,-0.49 0.52,-0.453 0.539,-0.405C0.558,-0.357 0.565,-0.301 0.56,-0.237L0.441,-0.237L0.441,-0.281C0.44,-0.339 0.43,-0.382 0.41,-0.409C0.389,-0.436 0.357,-0.45 0.314,-0.45C0.264,-0.45 0.228,-0.434 0.204,-0.404C0.18,-0.373 0.168,-0.329 0.168,-0.27C0.168,-0.215 0.18,-0.173 0.204,-0.143C0.228,-0.113 0.263,-0.098 0.309,-0.098C0.338,-0.098 0.364,-0.105 0.385,-0.118C0.407,-0.131 0.423,-0.15 0.435,-0.175L0.554,-0.139C0.533,-0.09 0.501,-0.053 0.458,-0.026C0.415,0.001 0.368,0.015 0.316,0.015ZM0.13,-0.237L0.13,-0.328L0.501,-0.328L0.501,-0.237L0.13,-0.237Z" style="fill:white;fill-rule:nonzero;"/>
            </g>
            <g transform="matrix(32,0,0,32,370.946,106.341)">
                <path d="M0.279,0.015C0.212,0.015 0.158,0 0.116,-0.03C0.074,-0.06 0.049,-0.102 0.04,-0.157L0.163,-0.176C0.169,-0.149 0.183,-0.128 0.205,-0.113C0.227,-0.097 0.254,-0.089 0.287,-0.09C0.316,-0.089 0.338,-0.095 0.354,-0.107C0.37,-0.118 0.378,-0.134 0.378,-0.154C0.378,-0.166 0.375,-0.176 0.369,-0.184C0.363,-0.191 0.351,-0.199 0.331,-0.206C0.311,-0.213 0.281,-0.221 0.241,-0.232C0.195,-0.244 0.159,-0.257 0.133,-0.271C0.106,-0.285 0.087,-0.301 0.075,-0.32C0.063,-0.339 0.058,-0.362 0.058,-0.389C0.058,-0.423 0.066,-0.452 0.084,-0.477C0.102,-0.502 0.126,-0.521 0.158,-0.535C0.19,-0.548 0.227,-0.555 0.27,-0.555C0.312,-0.555 0.349,-0.549 0.382,-0.536C0.414,-0.523 0.44,-0.504 0.461,-0.48C0.481,-0.456 0.493,-0.428 0.498,-0.396L0.375,-0.374C0.372,-0.397 0.361,-0.415 0.343,-0.428C0.325,-0.441 0.302,-0.449 0.272,-0.451C0.244,-0.452 0.221,-0.448 0.204,-0.438C0.186,-0.428 0.178,-0.413 0.178,-0.395C0.178,-0.385 0.181,-0.376 0.188,-0.369C0.195,-0.361 0.209,-0.354 0.23,-0.347C0.251,-0.339 0.283,-0.33 0.325,-0.32C0.368,-0.309 0.402,-0.296 0.428,-0.282C0.454,-0.268 0.473,-0.251 0.484,-0.231C0.496,-0.211 0.502,-0.188 0.502,-0.16C0.502,-0.105 0.482,-0.063 0.442,-0.032C0.403,-0.001 0.348,0.015 0.279,0.015Z" style="fill:white;fill-rule:nonzero;"/>
            </g>
        </g>
        <g transform="matrix(1,0,0,1,-30.6506,194.851)">
            <g transform="matrix(16,0,0,16,269.553,99.9509)">
                <path d="M0.363,0.015C0.305,0.015 0.254,0.003 0.21,-0.02C0.166,-0.044 0.132,-0.077 0.107,-0.12C0.082,-0.162 0.07,-0.212 0.07,-0.27L0.07,-0.719L0.208,-0.72L0.208,-0.271C0.208,-0.247 0.212,-0.226 0.22,-0.207C0.228,-0.187 0.239,-0.17 0.253,-0.157C0.267,-0.142 0.284,-0.132 0.303,-0.124C0.322,-0.117 0.342,-0.113 0.363,-0.113C0.385,-0.113 0.405,-0.117 0.424,-0.125C0.443,-0.132 0.46,-0.143 0.474,-0.157C0.488,-0.171 0.498,-0.188 0.506,-0.207C0.514,-0.226 0.518,-0.248 0.518,-0.271L0.518,-0.72L0.656,-0.72L0.656,-0.27C0.656,-0.212 0.644,-0.162 0.619,-0.12C0.594,-0.077 0.56,-0.044 0.516,-0.02C0.472,0.003 0.421,0.015 0.363,0.015Z" style="fill:rgb(0,116,190);fill-rule:nonzero;"/>
            </g>
            <g transform="matrix(16,0,0,16,281.169,99.9509)">
                <path d="M0.07,-0L0.07,-0.72L0.208,-0.72L0.521,-0.24L0.521,-0.72L0.659,-0.72L0.659,-0L0.521,-0L0.208,-0.48L0.208,-0L0.07,-0Z" style="fill:rgb(0,116,190);fill-rule:nonzero;"/>
            </g>
            <g transform="matrix(16,0,0,16,292.833,99.9509)">
                <path d="M0.379,0.015C0.307,0.015 0.245,-0.001 0.193,-0.032C0.141,-0.063 0.1,-0.107 0.072,-0.164C0.044,-0.22 0.03,-0.285 0.03,-0.36C0.03,-0.435 0.044,-0.5 0.072,-0.557C0.1,-0.613 0.141,-0.657 0.193,-0.688C0.245,-0.719 0.307,-0.735 0.379,-0.735C0.451,-0.735 0.513,-0.719 0.565,-0.688C0.617,-0.657 0.658,-0.613 0.686,-0.557C0.714,-0.5 0.728,-0.435 0.728,-0.36C0.728,-0.285 0.714,-0.22 0.686,-0.164C0.658,-0.107 0.617,-0.063 0.565,-0.032C0.513,-0.001 0.451,0.015 0.379,0.015ZM0.379,-0.113C0.425,-0.112 0.463,-0.122 0.493,-0.143C0.523,-0.163 0.546,-0.192 0.561,-0.229C0.576,-0.266 0.584,-0.31 0.584,-0.36C0.584,-0.41 0.576,-0.453 0.561,-0.49C0.546,-0.527 0.523,-0.555 0.493,-0.576C0.463,-0.596 0.425,-0.606 0.379,-0.607C0.333,-0.608 0.295,-0.598 0.265,-0.578C0.235,-0.557 0.212,-0.528 0.197,-0.491C0.182,-0.454 0.174,-0.41 0.174,-0.36C0.174,-0.31 0.182,-0.267 0.197,-0.23C0.212,-0.193 0.235,-0.165 0.265,-0.145C0.295,-0.124 0.333,-0.114 0.379,-0.113Z" style="fill:rgb(0,116,190);fill-rule:nonzero;"/>
            </g>
            <g transform="matrix(16,0,0,16,304.961,99.9509)">
                <path d="M0.07,-0L0.07,-0.72L0.51,-0.72L0.51,-0.584L0.206,-0.584L0.206,-0.428L0.45,-0.428L0.45,-0.292L0.206,-0.292L0.206,-0L0.07,-0Z" style="fill:rgb(0,116,190);fill-rule:nonzero;"/>
            </g>
            <g transform="matrix(16,0,0,16,313.441,99.9509)">
                <path d="M0.07,-0L0.07,-0.72L0.51,-0.72L0.51,-0.584L0.206,-0.584L0.206,-0.428L0.45,-0.428L0.45,-0.292L0.206,-0.292L0.206,-0L0.07,-0Z" style="fill:rgb(0,116,190);fill-rule:nonzero;"/>
            </g>
            <g transform="matrix(16,0,0,16,321.921,99.9509)">
                <rect x="0.08" y="-0.72" width="0.136" height="0.72" style="fill:rgb(0,116,190);fill-rule:nonzero;"/>
            </g>
            <g transform="matrix(16,0,0,16,326.657,99.9509)">
                <path d="M0.379,0.015C0.307,0.015 0.245,-0.001 0.193,-0.032C0.141,-0.063 0.1,-0.107 0.072,-0.164C0.044,-0.22 0.03,-0.285 0.03,-0.36C0.03,-0.435 0.044,-0.5 0.072,-0.557C0.1,-0.613 0.141,-0.657 0.193,-0.688C0.245,-0.719 0.307,-0.735 0.379,-0.735C0.462,-0.735 0.531,-0.715 0.587,-0.674C0.643,-0.632 0.683,-0.577 0.706,-0.507L0.569,-0.469C0.556,-0.513 0.533,-0.547 0.502,-0.571C0.47,-0.595 0.429,-0.607 0.379,-0.607C0.333,-0.607 0.295,-0.597 0.265,-0.577C0.234,-0.556 0.211,-0.528 0.196,-0.491C0.181,-0.454 0.173,-0.41 0.173,-0.36C0.173,-0.31 0.181,-0.267 0.196,-0.23C0.211,-0.193 0.234,-0.164 0.265,-0.144C0.295,-0.123 0.333,-0.113 0.379,-0.113C0.429,-0.113 0.47,-0.125 0.502,-0.15C0.533,-0.174 0.556,-0.208 0.569,-0.251L0.706,-0.213C0.683,-0.143 0.643,-0.088 0.587,-0.047C0.531,-0.006 0.462,0.015 0.379,0.015Z" style="fill:rgb(0,116,190);fill-rule:nonzero;"/>
            </g>
            <g transform="matrix(16,0,0,16,338.593,99.9509)">
                <rect x="0.08" y="-0.72" width="0.136" height="0.72" style="fill:rgb(0,116,190);fill-rule:nonzero;"/>
            </g>
            <g transform="matrix(16,0,0,16,343.329,99.9509)">
                <path d="M0.02,-0L0.24,-0.72L0.443,-0.72L0.663,-0L0.523,-0L0.327,-0.635L0.353,-0.635L0.16,-0L0.02,-0ZM0.152,-0.15L0.152,-0.277L0.532,-0.277L0.532,-0.15L0.152,-0.15Z" style="fill:rgb(0,116,190);fill-rule:nonzero;"/>
            </g>
            <g transform="matrix(16,0,0,16,354.257,99.9509)">
                <path d="M0.08,-0L0.08,-0.72L0.216,-0.72L0.216,-0.127L0.526,-0.127L0.526,-0L0.08,-0Z" style="fill:rgb(0,116,190);fill-rule:nonzero;"/>
            </g>
            <g transform="matrix(16,0,0,16,362.913,99.9509)">
                <path d="M0.06,0.135L0.068,0.078C0.084,0.079 0.097,0.077 0.107,0.07C0.117,0.064 0.124,0.054 0.128,0.042C0.132,0.03 0.132,0.016 0.13,-0L0.06,-0L0.06,-0.136L0.196,-0.136L0.196,-0C0.196,0.048 0.185,0.084 0.163,0.109C0.14,0.134 0.106,0.142 0.06,0.135Z" style="fill:rgb(0,116,190);fill-rule:nonzero;"/>
            </g>
            <g transform="matrix(16,0,0,16,371.169,99.9509)">
                <path d="M0.326,0.015C0.275,0.015 0.229,0.006 0.188,-0.011C0.147,-0.028 0.113,-0.053 0.087,-0.085C0.06,-0.117 0.043,-0.156 0.035,-0.2L0.127,-0.214C0.139,-0.169 0.163,-0.133 0.2,-0.108C0.237,-0.082 0.28,-0.07 0.33,-0.07C0.362,-0.07 0.392,-0.075 0.418,-0.085C0.444,-0.095 0.465,-0.11 0.48,-0.129C0.495,-0.148 0.503,-0.17 0.503,-0.196C0.503,-0.212 0.5,-0.226 0.495,-0.237C0.489,-0.249 0.482,-0.259 0.472,-0.267C0.463,-0.275 0.452,-0.282 0.44,-0.288C0.428,-0.293 0.416,-0.298 0.403,-0.302L0.219,-0.356C0.199,-0.362 0.18,-0.37 0.161,-0.379C0.142,-0.388 0.126,-0.399 0.111,-0.413C0.096,-0.427 0.085,-0.444 0.076,-0.463C0.067,-0.483 0.063,-0.506 0.063,-0.533C0.063,-0.575 0.074,-0.612 0.096,-0.642C0.118,-0.672 0.149,-0.695 0.187,-0.711C0.225,-0.727 0.267,-0.735 0.315,-0.735C0.363,-0.734 0.407,-0.726 0.445,-0.709C0.483,-0.692 0.515,-0.668 0.54,-0.637C0.565,-0.605 0.582,-0.568 0.591,-0.524L0.496,-0.508C0.491,-0.537 0.48,-0.562 0.463,-0.583C0.446,-0.604 0.424,-0.621 0.399,-0.632C0.373,-0.644 0.345,-0.65 0.314,-0.65C0.285,-0.65 0.258,-0.646 0.235,-0.636C0.211,-0.626 0.192,-0.613 0.178,-0.596C0.164,-0.579 0.157,-0.559 0.157,-0.537C0.157,-0.515 0.163,-0.497 0.176,-0.483C0.189,-0.47 0.204,-0.459 0.223,-0.451C0.241,-0.443 0.259,-0.437 0.277,-0.432L0.414,-0.393C0.43,-0.388 0.448,-0.382 0.468,-0.375C0.489,-0.367 0.509,-0.356 0.528,-0.342C0.547,-0.328 0.563,-0.31 0.576,-0.287C0.589,-0.264 0.595,-0.236 0.595,-0.201C0.595,-0.166 0.588,-0.135 0.574,-0.109C0.56,-0.082 0.541,-0.059 0.517,-0.041C0.492,-0.023 0.463,-0.009 0.431,0.001C0.398,0.01 0.363,0.015 0.326,0.015Z" style="fill:rgb(0,116,190);fill-rule:nonzero;"/>
            </g>
            <g transform="matrix(16,0,0,16,381.249,99.9509)">
                <path d="M0.256,-0L0.256,-0.636L0.01,-0.636L0.01,-0.72L0.59,-0.72L0.59,-0.636L0.345,-0.636L0.345,-0L0.256,-0Z" style="fill:rgb(0,116,190);fill-rule:nonzero;"/>
            </g>
            <g transform="matrix(16,0,0,16,390.849,99.9509)">
                <path d="M0.354,0.015C0.298,0.015 0.249,0.003 0.207,-0.02C0.164,-0.043 0.13,-0.075 0.106,-0.116C0.082,-0.158 0.07,-0.206 0.07,-0.263L0.07,-0.72L0.16,-0.72L0.16,-0.27C0.16,-0.236 0.166,-0.206 0.177,-0.181C0.189,-0.156 0.204,-0.135 0.223,-0.119C0.242,-0.102 0.263,-0.089 0.286,-0.081C0.309,-0.073 0.331,-0.069 0.354,-0.069C0.377,-0.069 0.4,-0.073 0.423,-0.082C0.446,-0.09 0.467,-0.102 0.486,-0.119C0.505,-0.135 0.52,-0.156 0.531,-0.182C0.542,-0.207 0.548,-0.236 0.548,-0.27L0.548,-0.72L0.638,-0.72L0.638,-0.263C0.638,-0.207 0.626,-0.158 0.602,-0.117C0.578,-0.075 0.544,-0.043 0.502,-0.02C0.459,0.003 0.41,0.015 0.354,0.015Z" style="fill:rgb(0,116,190);fill-rule:nonzero;"/>
            </g>
            <g transform="matrix(16,0,0,16,402.177,99.9509)">
                <path d="M0.07,-0L0.07,-0.72L0.292,-0.72C0.299,-0.72 0.312,-0.72 0.331,-0.72C0.349,-0.719 0.366,-0.718 0.383,-0.716C0.439,-0.708 0.485,-0.688 0.523,-0.655C0.56,-0.622 0.588,-0.58 0.608,-0.529C0.627,-0.478 0.636,-0.421 0.636,-0.36C0.636,-0.299 0.627,-0.243 0.608,-0.192C0.588,-0.14 0.56,-0.098 0.523,-0.065C0.485,-0.032 0.439,-0.012 0.383,-0.005C0.366,-0.003 0.349,-0.001 0.33,-0.001C0.312,-0 0.299,-0 0.292,-0L0.07,-0ZM0.162,-0.085L0.292,-0.085C0.305,-0.085 0.319,-0.085 0.335,-0.086C0.35,-0.087 0.364,-0.089 0.376,-0.091C0.415,-0.098 0.447,-0.114 0.471,-0.14C0.495,-0.166 0.513,-0.198 0.525,-0.236C0.536,-0.274 0.542,-0.316 0.542,-0.36C0.542,-0.405 0.536,-0.447 0.524,-0.486C0.513,-0.524 0.495,-0.556 0.471,-0.581C0.446,-0.606 0.415,-0.623 0.376,-0.63C0.364,-0.632 0.35,-0.633 0.334,-0.634C0.318,-0.635 0.304,-0.635 0.292,-0.635L0.162,-0.635L0.162,-0.085Z" style="fill:rgb(0,116,190);fill-rule:nonzero;"/>
            </g>
            <g transform="matrix(16,0,0,16,413.073,99.9509)">
                <path d="M0.07,-0L0.07,-0.72L0.525,-0.72L0.525,-0.636L0.159,-0.636L0.159,-0.41L0.465,-0.41L0.465,-0.326L0.159,-0.326L0.159,-0.085L0.525,-0.085L0.525,-0L0.07,-0Z" style="fill:rgb(0,116,190);fill-rule:nonzero;"/>
            </g>
            <g transform="matrix(16,0,0,16,422.273,99.9509)">
                <path d="M0.07,-0L0.07,-0.72L0.16,-0.72L0.536,-0.158L0.536,-0.72L0.626,-0.72L0.626,-0L0.536,-0L0.16,-0.563L0.16,-0L0.07,-0Z" style="fill:rgb(0,116,190);fill-rule:nonzero;"/>
            </g>
            <g transform="matrix(16,0,0,16,433.401,99.9509)">
                <path d="M0.256,-0L0.256,-0.636L0.01,-0.636L0.01,-0.72L0.59,-0.72L0.59,-0.636L0.345,-0.636L0.345,-0L0.256,-0Z" style="fill:rgb(0,116,190);fill-rule:nonzero;"/>
            </g>
            <g transform="matrix(16,0,0,16,443.001,99.9509)">
                <rect x="0.06" y="-0.397" width="0.3" height="0.074" style="fill:rgb(0,116,190);fill-rule:nonzero;"/>
            </g>
            <g transform="matrix(16,0,0,16,449.721,99.9509)">
                <path d="M0.07,-0L0.07,-0.72L0.351,-0.72C0.394,-0.72 0.43,-0.711 0.461,-0.694C0.491,-0.676 0.515,-0.653 0.531,-0.624C0.547,-0.595 0.555,-0.564 0.555,-0.531C0.555,-0.492 0.545,-0.457 0.525,-0.428C0.505,-0.399 0.478,-0.379 0.444,-0.368L0.443,-0.392C0.489,-0.38 0.525,-0.357 0.551,-0.324C0.577,-0.291 0.59,-0.252 0.59,-0.206C0.59,-0.164 0.581,-0.128 0.564,-0.097C0.547,-0.066 0.522,-0.043 0.49,-0.026C0.458,-0.009 0.42,-0 0.376,-0L0.07,-0ZM0.16,-0.085L0.359,-0.085C0.385,-0.085 0.409,-0.09 0.43,-0.1C0.451,-0.11 0.468,-0.124 0.48,-0.142C0.492,-0.16 0.498,-0.181 0.498,-0.207C0.498,-0.231 0.493,-0.253 0.482,-0.272C0.471,-0.291 0.456,-0.307 0.436,-0.318C0.417,-0.33 0.394,-0.335 0.369,-0.336L0.16,-0.336L0.16,-0.085ZM0.16,-0.42L0.35,-0.42C0.371,-0.42 0.39,-0.424 0.407,-0.433C0.424,-0.442 0.438,-0.455 0.448,-0.472C0.458,-0.489 0.464,-0.508 0.464,-0.531C0.464,-0.562 0.453,-0.587 0.432,-0.607C0.411,-0.626 0.384,-0.636 0.35,-0.636L0.16,-0.636L0.16,-0.42Z" style="fill:rgb(0,116,190);fill-rule:nonzero;"/>
            </g>
            <g transform="matrix(16,0,0,16,459.625,99.9509)">
                <path d="M0.354,0.015C0.298,0.015 0.249,0.003 0.207,-0.02C0.164,-0.043 0.13,-0.075 0.106,-0.116C0.082,-0.158 0.07,-0.206 0.07,-0.263L0.07,-0.72L0.16,-0.72L0.16,-0.27C0.16,-0.236 0.166,-0.206 0.177,-0.181C0.189,-0.156 0.204,-0.135 0.223,-0.119C0.242,-0.102 0.263,-0.089 0.286,-0.081C0.309,-0.073 0.331,-0.069 0.354,-0.069C0.377,-0.069 0.4,-0.073 0.423,-0.082C0.446,-0.09 0.467,-0.102 0.486,-0.119C0.505,-0.135 0.52,-0.156 0.531,-0.182C0.542,-0.207 0.548,-0.236 0.548,-0.27L0.548,-0.72L0.638,-0.72L0.638,-0.263C0.638,-0.207 0.626,-0.158 0.602,-0.117C0.578,-0.075 0.544,-0.043 0.502,-0.02C0.459,0.003 0.41,0.015 0.354,0.015Z" style="fill:rgb(0,116,190);fill-rule:nonzero;"/>
            </g>
            <g transform="matrix(16,0,0,16,470.953,99.9509)">
                <rect x="0.08" y="-0.72" width="0.089" height="0.72" style="fill:rgb(0,116,190);fill-rule:nonzero;"/>
            </g>
            <g transform="matrix(16,0,0,16,474.937,99.9509)">
                <path d="M0.08,-0L0.08,-0.72L0.169,-0.72L0.169,-0.085L0.503,-0.085L0.503,-0L0.08,-0Z" style="fill:rgb(0,116,190);fill-rule:nonzero;"/>
            </g>
            <g transform="matrix(16,0,0,16,481.625,99.9509)">
                <path d="M0.256,-0L0.256,-0.636L0.01,-0.636L0.01,-0.72L0.59,-0.72L0.59,-0.636L0.345,-0.636L0.345,-0L0.256,-0Z" style="fill:rgb(0,116,190);fill-rule:nonzero;"/>
            </g>
        </g>
        <g transform="matrix(0.978669,0,0,0.978669,240.564,239.53)">
            <path d="M8,13.333L16,13.333L16,11.333L8,11.333L8,13.333ZM8,10L16,10L16,8L8,8L8,10ZM22.667,14.667L22.667,6.667L25.333,6.667L26.667,8L26.667,9.333L30.667,9.333L30.667,12L26.667,12L26.667,13.333L25.333,14.667L22.667,14.667ZM8,20.667L8,17.333C6.533,17.333 5.278,16.811 4.233,15.767C3.189,14.722 2.667,13.467 2.667,12L2.667,9.333C2.667,7.867 3.189,6.611 4.233,5.567C5.278,4.522 6.533,4 8,4L21.333,4L21.333,17.333L16,17.333L16,20.667L8,20.667ZM5.333,28L5.333,22L18.667,22L18.667,28L5.333,28Z" style="fill:white;fill-rule:nonzero;"/>
        </g>
    </g>
</svg>
